# xmcd
#
# Track frame offsets:
#	150
#	14808
#	33044
#	48842
#	63912
#	78664
#	93553
#	105310
#	119061
#	134793
#	151344
#	163224
#	176407
#	190977
#	207510
#	222511
#	237271
#
# Disc length: 3347 seconds
#
# Revision: 0
# Processed by: cddbd v1.5.2PL0 Copyright (c) Steve Scherf et al.
# Submitted via: EasyCDDAExtractor 12.0.1.1
#
DISCID=f70d1111
DTITLE=Carlene Carter
DYEAR=2000
DGENRE=Country
TTITLE0=He Will Be Mine
TTITLE1=The Lucky Ones
TTITLE2=All Night Long
TTITLE3=Love Like This
TTITLE4=Every little thing
TTITLE5=Baby Ride Easy
TTITLE6=My Dixie Darling
TTITLE7=Madness
TTITLE8=Queen Of Hearts
TTITLE9=Goodnight Dallas
TTITLE10=You Are The One
TTITLE11=Come On Back
TTITLE12=Nowhere Train
TTITLE13=I Fell In Love
TTITLE14=Heart Is Right
TTITLE15=Sweet Me
TTITLE16=One Love
EXTD=
EXTT0=
EXTT1=
EXTT2=
EXTT3=
EXTT4=
EXTT5=
EXTT6=
EXTT7=
EXTT8=
EXTT9=
EXTT10=
EXTT11=
EXTT12=
EXTT13=
EXTT14=
EXTT15=
EXTT16=
PLAYORDER=
